<?xml version="1.0" encoding="utf-8"?>
<!-- Generator: Adobe Illustrator 20.0.0, SVG Export Plug-In . SVG Version: 6.00 Build 0)  -->
<svg version="1.1" id="Capa_1" xmlns="http://www.w3.org/2000/svg" xmlns:xlink="http://www.w3.org/1999/xlink" x="0px" y="0px"
	 viewBox="0 0 481.8 209" style="enable-background:new 0 0 481.8 209;" xml:space="preserve">
<style type="text/css">
	.st0{enable-background:new    ;}
</style>
<title>logo</title>
<g class="st0">
	<path d="M295.1,176.1c-8.2,0-15.8-1.5-22.8-4.5c-7-3-13-7-18.1-12.2c-5-5.1-9-11.1-11.8-18c-2.9-6.9-4.3-14.2-4.3-22v-0.4
		c0-7.8,1.4-15.1,4.3-22.1c2.9-6.9,6.8-13,11.8-18.2c5-5.2,11.1-9.3,18.1-12.3c7-3,14.7-4.5,23.2-4.5c10.3,0,18.9,1.6,25.7,4.9
		c6.8,3.3,12.8,7.8,18,13.5l-19,20.4c-3.5-3.7-7.2-6.6-10.9-8.8c-3.7-2.2-8.4-3.3-14-3.3c-4,0-7.5,0.8-10.7,2.3
		c-3.2,1.6-6,3.7-8.4,6.4c-2.4,2.7-4.2,5.9-5.5,9.5c-1.3,3.6-1.9,7.5-1.9,11.5v0.4c0,4.2,0.6,8.2,1.9,11.8c1.3,3.7,3.2,6.9,5.6,9.6
		c2.5,2.7,5.4,4.9,8.8,6.4c3.4,1.6,7.2,2.3,11.4,2.3c5.2,0,9.7-1.1,13.6-3.2c3.9-2.1,7.7-4.9,11.5-8.5l18.2,18.4
		c-5.3,5.9-11.4,10.7-18.2,14.4C314.9,174.2,306,176.1,295.1,176.1z"/>
	<path d="M413.8,176.1c-8.4,0-16.3-1.5-23.5-4.4c-7.2-2.9-13.5-6.9-18.7-12.1c-5.2-5.1-9.4-11.1-12.4-18c-3-6.9-4.5-14.3-4.5-22.2
		v-0.4c0-7.9,1.5-15.3,4.5-22.2c3-6.9,7.1-12.9,12.5-18.1c5.3-5.2,11.6-9.3,18.8-12.3c7.2-3,15.1-4.5,23.7-4.5
		c8.4,0,16.3,1.5,23.5,4.4c7.2,2.9,13.4,6.9,18.7,12.1c5.2,5.1,9.4,11.1,12.4,18c3,6.9,4.5,14.3,4.5,22.2v0.4
		c0,7.9-1.5,15.3-4.5,22.2c-3,6.9-7.1,12.9-12.5,18.1c-5.3,5.2-11.6,9.3-18.8,12.3C430.3,174.6,422.4,176.1,413.8,176.1z
		 M414.2,149.3c4.5,0,8.5-0.8,12-2.3c3.5-1.6,6.4-3.7,8.9-6.4c2.5-2.7,4.3-5.9,5.6-9.5c1.3-3.6,1.9-7.5,1.9-11.5v-0.4
		c0-4.1-0.7-7.9-2-11.5c-1.4-3.6-3.3-6.8-5.9-9.6c-2.6-2.8-5.7-5-9.2-6.6c-3.5-1.6-7.4-2.5-11.6-2.5c-4.5,0-8.5,0.8-12,2.3
		c-3.5,1.6-6.4,3.7-8.9,6.4c-2.5,2.7-4.3,5.9-5.6,9.5c-1.3,3.6-1.9,7.5-1.9,11.5v0.4c0,4.1,0.7,7.9,2,11.5c1.4,3.6,3.3,6.8,5.9,9.6
		c2.6,2.8,5.6,5,9.1,6.6C405.9,148.5,409.9,149.3,414.2,149.3z"/>
</g>
<rect y="156.7" width="130.1" height="19.2"/>
<circle cx="184.7" cy="157.7" r="18.4"/>
</svg>
